<svg width="60" height="60" viewBox="0 0 60 60" fill="none" xmlns="http://www.w3.org/2000/svg">
    <path d="M11.4844 13.125H16.6406C16.9514 13.125 17.2495 13.2485 17.4693 13.4682C17.689 13.688 17.8125 13.9861 17.8125 14.2969V21.5625H10.3125V14.2969C10.3125 13.9861 10.436 13.688 10.6557 13.4682C10.8755 13.2485 11.1736 13.125 11.4844 13.125Z"
          fill="#CBDAFF"/>
    <path d="M22.5 33.75H5.625V24.1406C5.625 23.2082 5.9954 22.314 6.6547 21.6547C7.31401 20.9954 8.20822 20.625 9.14062 20.625H18.9844C19.9168 20.625 20.811 20.9954 21.4703 21.6547C22.1296 22.314 22.5 23.2082 22.5 24.1406V33.75Z"
          fill="#759BFA"/>
    <path d="M18.75 32.8125H9.375V26.4844C9.375 26.1736 9.49847 25.8755 9.71823 25.6557C9.938 25.436 10.2361 25.3125 10.5469 25.3125H17.5781C17.8889 25.3125 18.187 25.436 18.4068 25.6557C18.6265 25.8755 18.75 26.1736 18.75 26.4844V32.8125Z"
          fill="#FFFDFA"/>
    <path d="M32.8125 16.875L26.25 26.25V33.75H41.25V26.25L38.4375 16.875V15.9375H32.8125V16.875Z" fill="#8D5AED"/>
    <path d="M27.1875 10.3125L23.4375 18.75L26.25 19.6875L32.8125 12.1875L27.1875 10.3125Z" fill="#CBDAFF"/>
    <path d="M26.25 10.3125L23.4375 9.375V6.5625H28.125L26.25 10.3125Z" fill="#759BFA"/>
    <path d="M25.3125 11.25L27.1875 6.5625H34.6875L38.4375 13.125V14.0625H32.8125V13.125L25.3125 11.25Z"
          fill="#164EF8"/>
    <path d="M32.8125 13.125H38.4375V16.875H32.8125V13.125Z" fill="#CBDAFF"/>
    <path d="M2.8125 32.8125H48.75V36.5625H5.15625C4.53465 36.5625 3.93851 36.3156 3.49897 35.876C3.05943 35.4365 2.8125 34.8404 2.8125 34.2188V32.8125Z"
          fill="#CBDAFF"/>
    <path d="M43.5938 57.1875H8.90625C8.28465 57.1875 7.68851 56.9406 7.24897 56.501C6.80943 56.0615 6.5625 55.4654 6.5625 54.8438V36.5625H45.9375V54.8438C45.9375 55.4654 45.6906 56.0615 45.251 56.501C44.8115 56.9406 44.2154 57.1875 43.5938 57.1875Z"
          fill="#759BFA"/>
    <path d="M8.4375 57.1875C11.5441 57.1875 14.0625 54.6691 14.0625 51.5625C14.0625 48.4559 11.5441 45.9375 8.4375 45.9375C5.3309 45.9375 2.8125 48.4559 2.8125 51.5625C2.8125 54.6691 5.3309 57.1875 8.4375 57.1875Z"
          fill="#CBDAFF"/>
    <path d="M8.4375 53.4375C9.47303 53.4375 10.3125 52.598 10.3125 51.5625C10.3125 50.527 9.47303 49.6875 8.4375 49.6875C7.40197 49.6875 6.5625 50.527 6.5625 51.5625C6.5625 52.598 7.40197 53.4375 8.4375 53.4375Z"
          fill="#759BFA"/>
    <path d="M18.0469 31.875H31.6406C31.9514 31.875 32.2495 31.9985 32.4693 32.2182C32.689 32.438 32.8125 32.7361 32.8125 33.0469V48.75H16.875V33.0469C16.875 32.7361 16.9985 32.438 17.2182 32.2182C17.438 31.9985 17.7361 31.875 18.0469 31.875Z"
          fill="#164EF8"/>
    <path d="M16.875 40.3125H32.8125V44.0625H16.875V40.3125Z" fill="#FDF8FF"/>
    <path d="M46.1719 4.6875H47.5781C47.8889 4.6875 48.187 4.81097 48.4068 5.03073C48.6265 5.2505 48.75 5.54857 48.75 5.85938V41.25H45V5.85938C45 5.54857 45.1235 5.2505 45.3432 5.03073C45.563 4.81097 45.8611 4.6875 46.1719 4.6875Z"
          fill="#164EF8"/>
    <path d="M50.9353 40.3125H42.8147C42.6217 40.3125 42.4318 40.3601 42.2617 40.4512C42.0916 40.5422 41.9466 40.6738 41.8396 40.8343L36.5625 48.75V57.1875H57.1875V48.75L51.9104 40.8343C51.8034 40.6738 51.6584 40.5422 51.4883 40.4512C51.3182 40.3601 51.1283 40.3125 50.9353 40.3125Z"
          fill="#CBDAFF"/>
    <path d="M36.5625 49.6875H57.1875V57.1875H36.5625V49.6875Z" fill="#164EF8"/>
    <path d="M36.5625 48.75H57.1875V50.625H36.5625V48.75Z" fill="#164EF8"/>
    <path d="M43.125 44.0625H45V45.9375H43.125V44.0625Z" fill="#FFFEFA"/>
    <path d="M48.75 44.0625H50.625V45.9375H48.75V44.0625Z" fill="#FFFEFA"/>
    <path d="M41.25 52.5H43.125V57.1875H41.25V52.5Z" fill="#164EF8"/>
    <path d="M50.625 52.5H52.5V57.1875H50.625V52.5Z" fill="#164EF8"/>
    <path d="M45.9375 52.5H47.8125V57.1875H45.9375V52.5Z" fill="#164EF8"/>
    <path d="M53.4375 15H55.3125V16.875H53.4375V15Z" fill="#CBDAFF"/>
    <path d="M53.4375 18.75H55.3125V20.625H53.4375V18.75Z" fill="#CBDAFF"/>
    <path d="M51.5625 16.875H53.4375V18.75H51.5625V16.875Z" fill="#CBDAFF"/>
    <path d="M55.3125 16.875H57.1875V18.75H55.3125V16.875Z" fill="#CBDAFF"/>
    <path d="M6.5625 4.6875H8.4375V6.5625H6.5625V4.6875Z" fill="#CBDAFF"/>
    <path d="M6.5625 8.4375H8.4375V10.3125H6.5625V8.4375Z" fill="#CBDAFF"/>
    <path d="M4.6875 6.5625H6.5625V8.4375H4.6875V6.5625Z" fill="#CBDAFF"/>
    <path d="M8.4375 6.5625H10.3125V8.4375H8.4375V6.5625Z" fill="#CBDAFF"/>
</svg>
